<mxfile host="app.diagrams.net" modified="2023-10-02T00:49:14.096Z" agent="Mozilla/5.0 (Windows NT 10.0; Win64; x64) AppleWebKit/537.36 (KHTML, like Gecko) Chrome/117.0.0.0 Safari/537.36" etag="LOo2lgZXdZzOiFp0dioL" version="21.8.2" type="github">
  <diagram name="Página-1" id="erG6woUNSbwk-ZkEkOTO">
    <mxGraphModel dx="1702" dy="478" grid="1" gridSize="10" guides="1" tooltips="1" connect="1" arrows="1" fold="1" page="1" pageScale="1" pageWidth="827" pageHeight="1169" math="0" shadow="0">
      <root>
        <mxCell id="0" />
        <mxCell id="1" parent="0" />
        <mxCell id="Wth8iv2GfkqELasgQL_4-1" value="&lt;ol&gt;&lt;li style=&quot;text-align: left;&quot;&gt;Administrar as Construtoras&lt;/li&gt;&lt;li style=&quot;text-align: left;&quot;&gt;Engenheiros&lt;/li&gt;&lt;li style=&quot;text-align: left;&quot;&gt;Obras&lt;/li&gt;&lt;li style=&quot;text-align: left;&quot;&gt;Operarios&lt;/li&gt;&lt;li style=&quot;text-align: left;&quot;&gt;Segurança&lt;/li&gt;&lt;/ol&gt;" style="text;html=1;align=center;verticalAlign=middle;resizable=0;points=[];autosize=1;strokeColor=none;fillColor=none;" vertex="1" parent="1">
          <mxGeometry x="-120" y="30" width="210" height="110" as="geometry" />
        </mxCell>
        <mxCell id="Wth8iv2GfkqELasgQL_4-2" value="Necessidades" style="text;html=1;strokeColor=none;fillColor=none;align=center;verticalAlign=middle;whiteSpace=wrap;rounded=0;" vertex="1" parent="1">
          <mxGeometry x="-80" y="10" width="150" height="30" as="geometry" />
        </mxCell>
        <mxCell id="Wth8iv2GfkqELasgQL_4-3" value="&lt;div style=&quot;text-align: left;&quot;&gt;1.1 - RegistrarConstrtutoras&lt;/div&gt;&lt;div style=&quot;text-align: left;&quot;&gt;2.1 - Registrar Engenheiros&lt;/div&gt;&lt;div style=&quot;text-align: left;&quot;&gt;3.1 - Registrar Obras&lt;/div&gt;&lt;div style=&quot;text-align: left;&quot;&gt;4.1 - Registrar Operarios&lt;/div&gt;&lt;div style=&quot;text-align: left;&quot;&gt;5.1 Autenticação&lt;/div&gt;" style="text;html=1;align=center;verticalAlign=middle;resizable=0;points=[];autosize=1;strokeColor=none;fillColor=none;" vertex="1" parent="1">
          <mxGeometry x="-90" y="170" width="170" height="90" as="geometry" />
        </mxCell>
        <mxCell id="Wth8iv2GfkqELasgQL_4-4" value="Caracteristicas" style="text;html=1;strokeColor=none;fillColor=none;align=center;verticalAlign=middle;whiteSpace=wrap;rounded=0;" vertex="1" parent="1">
          <mxGeometry x="-70" y="140" width="150" height="30" as="geometry" />
        </mxCell>
        <mxCell id="Wth8iv2GfkqELasgQL_4-5" value="&lt;div style=&quot;text-align: left;&quot;&gt;UC001 - Cadastrar Construtora&lt;/div&gt;&lt;div style=&quot;text-align: left;&quot;&gt;UC002 - Cadastrar Engenheiro&lt;/div&gt;&lt;div style=&quot;text-align: left;&quot;&gt;UC003 - Registrar Obras&lt;/div&gt;&lt;div style=&quot;text-align: left;&quot;&gt;UC004 - Registrar Operarios&lt;/div&gt;&lt;div style=&quot;text-align: left;&quot;&gt;UC005 - Login&lt;/div&gt;&lt;div style=&quot;text-align: left;&quot;&gt;UC007 - Validar senha&lt;/div&gt;&lt;div style=&quot;text-align: left;&quot;&gt;UC008 - Esquici minha senha&lt;/div&gt;" style="text;html=1;align=center;verticalAlign=middle;resizable=0;points=[];autosize=1;strokeColor=none;fillColor=none;" vertex="1" parent="1">
          <mxGeometry x="-100" y="320" width="190" height="110" as="geometry" />
        </mxCell>
        <mxCell id="Wth8iv2GfkqELasgQL_4-6" value="Requisitos Funcionais" style="text;html=1;strokeColor=none;fillColor=none;align=center;verticalAlign=middle;whiteSpace=wrap;rounded=0;" vertex="1" parent="1">
          <mxGeometry x="-70" y="300" width="150" height="30" as="geometry" />
        </mxCell>
        <mxCell id="Wth8iv2GfkqELasgQL_4-13" style="edgeStyle=orthogonalEdgeStyle;rounded=0;orthogonalLoop=1;jettySize=auto;html=1;entryX=0.5;entryY=0;entryDx=0;entryDy=0;" edge="1" parent="1" source="Wth8iv2GfkqELasgQL_4-7" target="Wth8iv2GfkqELasgQL_4-8">
          <mxGeometry relative="1" as="geometry" />
        </mxCell>
        <mxCell id="Wth8iv2GfkqELasgQL_4-14" style="edgeStyle=orthogonalEdgeStyle;rounded=0;orthogonalLoop=1;jettySize=auto;html=1;" edge="1" parent="1" source="Wth8iv2GfkqELasgQL_4-7" target="Wth8iv2GfkqELasgQL_4-9">
          <mxGeometry relative="1" as="geometry" />
        </mxCell>
        <mxCell id="Wth8iv2GfkqELasgQL_4-7" value="socios" style="rounded=0;whiteSpace=wrap;html=1;" vertex="1" parent="1">
          <mxGeometry x="250" y="40" width="120" height="60" as="geometry" />
        </mxCell>
        <mxCell id="Wth8iv2GfkqELasgQL_4-11" style="edgeStyle=orthogonalEdgeStyle;rounded=0;orthogonalLoop=1;jettySize=auto;html=1;entryX=0;entryY=0.5;entryDx=0;entryDy=0;" edge="1" parent="1" source="Wth8iv2GfkqELasgQL_4-8" target="Wth8iv2GfkqELasgQL_4-10">
          <mxGeometry relative="1" as="geometry" />
        </mxCell>
        <mxCell id="Wth8iv2GfkqELasgQL_4-21" style="edgeStyle=orthogonalEdgeStyle;rounded=0;orthogonalLoop=1;jettySize=auto;html=1;entryX=0;entryY=0.75;entryDx=0;entryDy=0;" edge="1" parent="1" source="Wth8iv2GfkqELasgQL_4-8" target="Wth8iv2GfkqELasgQL_4-17">
          <mxGeometry relative="1" as="geometry">
            <Array as="points">
              <mxPoint x="170" y="185" />
              <mxPoint x="170" y="438" />
            </Array>
          </mxGeometry>
        </mxCell>
        <mxCell id="Wth8iv2GfkqELasgQL_4-8" value="Construtora" style="rounded=0;whiteSpace=wrap;html=1;" vertex="1" parent="1">
          <mxGeometry x="180" y="160" width="120" height="50" as="geometry" />
        </mxCell>
        <mxCell id="Wth8iv2GfkqELasgQL_4-15" style="edgeStyle=orthogonalEdgeStyle;rounded=0;orthogonalLoop=1;jettySize=auto;html=1;entryX=1;entryY=0.5;entryDx=0;entryDy=0;" edge="1" parent="1" source="Wth8iv2GfkqELasgQL_4-9" target="Wth8iv2GfkqELasgQL_4-10">
          <mxGeometry relative="1" as="geometry" />
        </mxCell>
        <mxCell id="Wth8iv2GfkqELasgQL_4-9" value="Engenheiro" style="rounded=0;whiteSpace=wrap;html=1;" vertex="1" parent="1">
          <mxGeometry x="354" y="160" width="120" height="50" as="geometry" />
        </mxCell>
        <mxCell id="Wth8iv2GfkqELasgQL_4-12" style="edgeStyle=orthogonalEdgeStyle;rounded=0;orthogonalLoop=1;jettySize=auto;html=1;exitX=0.5;exitY=0;exitDx=0;exitDy=0;entryX=1;entryY=0.5;entryDx=0;entryDy=0;" edge="1" parent="1" source="Wth8iv2GfkqELasgQL_4-10" target="Wth8iv2GfkqELasgQL_4-8">
          <mxGeometry relative="1" as="geometry" />
        </mxCell>
        <mxCell id="Wth8iv2GfkqELasgQL_4-16" style="edgeStyle=orthogonalEdgeStyle;rounded=0;orthogonalLoop=1;jettySize=auto;html=1;entryX=0;entryY=0.5;entryDx=0;entryDy=0;" edge="1" parent="1" source="Wth8iv2GfkqELasgQL_4-10" target="Wth8iv2GfkqELasgQL_4-9">
          <mxGeometry relative="1" as="geometry" />
        </mxCell>
        <mxCell id="Wth8iv2GfkqELasgQL_4-10" value="Obras" style="ellipse;whiteSpace=wrap;html=1;aspect=fixed;" vertex="1" parent="1">
          <mxGeometry x="280" y="270" width="80" height="80" as="geometry" />
        </mxCell>
        <mxCell id="Wth8iv2GfkqELasgQL_4-22" style="edgeStyle=orthogonalEdgeStyle;rounded=0;orthogonalLoop=1;jettySize=auto;html=1;exitX=0.5;exitY=0;exitDx=0;exitDy=0;entryX=0.5;entryY=1;entryDx=0;entryDy=0;" edge="1" parent="1" source="Wth8iv2GfkqELasgQL_4-17" target="Wth8iv2GfkqELasgQL_4-10">
          <mxGeometry relative="1" as="geometry" />
        </mxCell>
        <mxCell id="Wth8iv2GfkqELasgQL_4-17" value="Operarios" style="rounded=0;whiteSpace=wrap;html=1;" vertex="1" parent="1">
          <mxGeometry x="260" y="400" width="120" height="50" as="geometry" />
        </mxCell>
        <mxCell id="Wth8iv2GfkqELasgQL_4-23" value="Obras" style="ellipse;whiteSpace=wrap;html=1;" vertex="1" parent="1">
          <mxGeometry x="600" y="80" width="140" height="70" as="geometry" />
        </mxCell>
        <mxCell id="Wth8iv2GfkqELasgQL_4-34" value="" style="edgeStyle=orthogonalEdgeStyle;rounded=0;orthogonalLoop=1;jettySize=auto;html=1;exitX=1;exitY=0.3333333333333333;exitDx=0;exitDy=0;exitPerimeter=0;" edge="1" parent="1" source="Wth8iv2GfkqELasgQL_4-24" target="Wth8iv2GfkqELasgQL_4-23">
          <mxGeometry relative="1" as="geometry" />
        </mxCell>
        <mxCell id="Wth8iv2GfkqELasgQL_4-35" value="Text" style="edgeLabel;html=1;align=center;verticalAlign=middle;resizable=0;points=[];" vertex="1" connectable="0" parent="Wth8iv2GfkqELasgQL_4-34">
          <mxGeometry x="-0.3353" y="-2" relative="1" as="geometry">
            <mxPoint as="offset" />
          </mxGeometry>
        </mxCell>
        <mxCell id="Wth8iv2GfkqELasgQL_4-24" value="Construtoras" style="shape=umlActor;verticalLabelPosition=bottom;verticalAlign=top;html=1;" vertex="1" parent="1">
          <mxGeometry x="590" y="220" width="30" height="60" as="geometry" />
        </mxCell>
        <mxCell id="Wth8iv2GfkqELasgQL_4-25" value="Operarios" style="shape=umlActor;verticalLabelPosition=bottom;verticalAlign=top;html=1;" vertex="1" parent="1">
          <mxGeometry x="750" y="220" width="30" height="60" as="geometry" />
        </mxCell>
        <mxCell id="Wth8iv2GfkqELasgQL_4-28" value="Engenheiro" style="shape=umlActor;verticalLabelPosition=bottom;verticalAlign=top;html=1;" vertex="1" parent="1">
          <mxGeometry x="530" y="55" width="30" height="60" as="geometry" />
        </mxCell>
        <mxCell id="Wth8iv2GfkqELasgQL_4-30" style="edgeStyle=orthogonalEdgeStyle;rounded=0;orthogonalLoop=1;jettySize=auto;html=1;entryX=1;entryY=0.3333333333333333;entryDx=0;entryDy=0;entryPerimeter=0;" edge="1" parent="1" source="Wth8iv2GfkqELasgQL_4-23" target="Wth8iv2GfkqELasgQL_4-25">
          <mxGeometry relative="1" as="geometry" />
        </mxCell>
        <mxCell id="Wth8iv2GfkqELasgQL_4-31" style="edgeStyle=orthogonalEdgeStyle;rounded=0;orthogonalLoop=1;jettySize=auto;html=1;entryX=0.75;entryY=0.982;entryDx=0;entryDy=0;entryPerimeter=0;" edge="1" parent="1">
          <mxGeometry relative="1" as="geometry">
            <mxPoint x="750" y="241.26" as="sourcePoint" />
            <mxPoint x="705" y="140" as="targetPoint" />
          </mxGeometry>
        </mxCell>
        <mxCell id="Wth8iv2GfkqELasgQL_4-32" style="edgeStyle=orthogonalEdgeStyle;rounded=0;orthogonalLoop=1;jettySize=auto;html=1;entryX=0.038;entryY=0.715;entryDx=0;entryDy=0;entryPerimeter=0;" edge="1" parent="1" source="Wth8iv2GfkqELasgQL_4-28" target="Wth8iv2GfkqELasgQL_4-23">
          <mxGeometry relative="1" as="geometry" />
        </mxCell>
        <mxCell id="Wth8iv2GfkqELasgQL_4-33" style="edgeStyle=orthogonalEdgeStyle;rounded=0;orthogonalLoop=1;jettySize=auto;html=1;exitX=0.5;exitY=0;exitDx=0;exitDy=0;entryX=0.5;entryY=0;entryDx=0;entryDy=0;entryPerimeter=0;" edge="1" parent="1" source="Wth8iv2GfkqELasgQL_4-23" target="Wth8iv2GfkqELasgQL_4-28">
          <mxGeometry relative="1" as="geometry" />
        </mxCell>
        <mxCell id="Wth8iv2GfkqELasgQL_4-36" style="edgeStyle=orthogonalEdgeStyle;rounded=0;orthogonalLoop=1;jettySize=auto;html=1;exitX=0;exitY=1;exitDx=0;exitDy=0;entryX=0.5;entryY=0;entryDx=0;entryDy=0;entryPerimeter=0;" edge="1" parent="1" source="Wth8iv2GfkqELasgQL_4-23" target="Wth8iv2GfkqELasgQL_4-24">
          <mxGeometry relative="1" as="geometry" />
        </mxCell>
      </root>
    </mxGraphModel>
  </diagram>
</mxfile>
